<svg height="91.302185mm" viewBox="0 0 99.08345 91.302185" width="99.08345mm" xmlns="http://www.w3.org/2000/svg"><g fill="none" stroke="#000"><g stroke-width="1.68233" transform="translate(-.33332 -.088381)"><path d="m98.167384 1.4762556c4.174836 10.1306784-25.956649 36.3619154-37.392085 61.5077354-1.815155 5.065347-.907585 16.281456-1.27061 23.517647-.363025 3.075382-7.986635 5.608064-10.527852 2.894486-5.626951-8.140728-8.531208-16.824169-12.1615-17.728704-4.364742-2.27408-26.586426 6.78599-33.5802565-4.522631-17.9122545-28.963063 86.1796935-71.5301006 94.9323035-65.6685334z"/><ellipse cx="32.912781" cy="42.705627" rx="4.1073" ry="4.003049"/><ellipse cx="38.484352" cy="31.780111" rx="4.1073" ry="4.003049"/><ellipse cx="25.108419" cy="51.035942" rx="4.1073" ry="4.003049"/><ellipse cx="14.704915" cy="56.960968" rx="4.1073" ry="4.003049"/><ellipse cx="56.318913" cy="48.07354" rx="4.1073" ry="4.003049"/><ellipse cx="61.520683" cy="36.223816" rx="4.1073" ry="4.003049"/><ellipse cx="68.951836" cy="26.595896" rx="4.1073" ry="4.003049"/><ellipse cx="78.612213" cy="20.670967" rx="4.1073" ry="4.003049"/><ellipse cx="67.498634" cy="70.471817" rx="4.1073" ry="4.003049"/><ellipse cx="34.2388" cy="82.235115" rx="4.1073" ry="4.003049"/></g><g stroke-width="1.40194"><ellipse cx="31.601952" cy="59.049883" rx="2.311417" ry="2.122747"/><ellipse cx="53.31067" cy="30.295118" rx="2.311417" ry="2.122747"/></g></g></svg>